<svg version="1.1" id="Layer_1" xmlns="http://www.w3.org/2000/svg" xmlns:xlink="http://www.w3.org/1999/xlink" x="0px" y="0px"
	 width="100%" viewBox="0 0 1254 1254" enable-background="new 0 0 1254 1254" xml:space="preserve">
<path fill="#FEFEFE" opacity="1.000000" stroke="none" 
	d="
M659.000000,1255.000000 
	C439.333344,1255.000000 220.166672,1255.000000 1.000000,1255.000000 
	C1.000000,837.000000 1.000000,419.000000 1.000000,1.000000 
	C419.000000,1.000000 837.000000,1.000000 1255.000000,1.000000 
	C1255.000000,419.000000 1255.000000,837.000000 1255.000000,1255.000000 
	C1056.500000,1255.000000 858.000000,1255.000000 659.000000,1255.000000 
M832.071472,180.844528 
	C715.192444,180.812042 598.313416,180.768494 481.434357,180.760101 
	C465.625793,180.758972 449.817230,180.934418 433.090637,180.818710 
	C408.709259,180.457306 384.435425,181.618546 360.571960,187.026627 
	C297.616913,201.293854 252.069992,237.444809 225.353851,296.337891 
	C211.632248,326.585876 207.829910,358.954590 207.826950,391.894745 
	C207.813889,537.204834 207.756378,682.514954 207.712265,827.825073 
	C207.705231,851.002441 208.226822,874.142029 213.038101,896.943420 
	C226.463028,960.566162 261.981873,1007.167786 320.748993,1035.351685 
	C351.680573,1050.186035 384.984497,1054.822998 418.900787,1054.871582 
	C554.712097,1055.066284 690.524170,1055.134033 826.334900,1054.819214 
	C845.594421,1054.774536 865.004578,1053.488403 884.077515,1050.845947 
	C962.205505,1040.021729 1023.690186,983.281128 1042.093628,906.396301 
	C1048.629395,879.091675 1049.687378,851.331787 1049.709961,823.507141 
	C1049.822388,685.195984 1049.792480,546.884583 1049.646606,408.573425 
	C1049.620728,384.090576 1049.088013,359.582550 1043.980103,335.469574 
	C1032.346436,280.550415 1003.609741,237.392853 955.110046,208.453598 
	C917.540222,186.036072 875.902222,180.367950 832.071472,180.844528 
z"/>
<path fill="#070D3B" opacity="1.000000" stroke="none" 
	d="
M832.991272,181.030762 
	C875.902222,180.367950 917.540222,186.036072 955.110046,208.453598 
	C1003.609741,237.392853 1032.346436,280.550415 1043.980103,335.469574 
	C1049.088013,359.582550 1049.620728,384.090576 1049.646606,408.573425 
	C1049.792480,546.884583 1049.822388,685.195984 1049.709961,823.507141 
	C1049.687378,851.331787 1048.629395,879.091675 1042.093628,906.396301 
	C1023.690186,983.281128 962.205505,1040.021729 884.077515,1050.845947 
	C865.004578,1053.488403 845.594421,1054.774536 826.334900,1054.819214 
	C690.524170,1055.134033 554.712097,1055.066284 418.900787,1054.871582 
	C384.984497,1054.822998 351.680573,1050.186035 320.748993,1035.351685 
	C261.981873,1007.167786 226.463028,960.566162 213.038101,896.943420 
	C208.226822,874.142029 207.705231,851.002441 207.712265,827.825073 
	C207.756378,682.514954 207.813889,537.204834 207.826950,391.894745 
	C207.829910,358.954590 211.632248,326.585876 225.353851,296.337891 
	C252.069992,237.444809 297.616913,201.293854 360.571960,187.026627 
	C384.435425,181.618546 408.709259,180.457306 433.847992,181.213440 
	C436.417664,181.735321 438.230011,181.973526 440.042328,181.973770 
	C569.124207,181.991043 698.206116,181.993484 827.288025,181.949432 
	C829.189209,181.948792 831.090210,181.350250 832.991272,181.030762 
M482.192871,722.898926 
	C482.192871,722.898926 482.322144,722.823364 482.273346,722.180298 
	C481.887299,721.678650 481.501251,721.177063 480.961304,720.022217 
	C454.944580,680.882080 444.292633,638.057251 449.829865,591.257751 
	C450.269897,587.538574 451.439941,586.347473 455.164581,585.898804 
	C476.195679,583.365417 492.176666,564.750366 492.340790,543.606018 
	C492.441162,530.671082 487.583984,519.996704 478.942871,510.855743 
	C479.202057,510.165192 479.299866,509.665710 479.553040,509.264191 
	C494.782593,485.113190 514.792236,465.934448 539.575073,451.768616 
	C556.642639,442.012878 574.853516,435.370026 594.204407,431.787445 
	C602.163391,430.313904 606.303406,424.318359 604.823242,417.033813 
	C603.422546,410.139984 597.243958,406.288818 589.665344,407.785339 
	C533.422119,418.891449 490.012726,448.890015 458.663605,496.714203 
	C457.817139,498.005493 455.666412,499.341919 454.245789,499.221313 
	C433.773743,497.483978 415.679138,508.314941 408.490845,526.872681 
	C401.364838,545.269714 407.618347,566.895264 423.694092,578.684509 
	C426.028351,580.396301 426.736206,581.832336 426.325928,584.788818 
	C421.355927,620.603455 424.796539,655.561829 437.748077,689.418823 
	C445.650726,710.077393 456.253265,729.213928 470.941956,746.612915 
	C471.257721,746.811340 471.573517,747.009705 471.880310,747.072449 
	C471.880310,747.072449 471.752686,747.119385 471.848541,747.695374 
	C472.243164,748.098999 472.637787,748.502625 473.190125,749.397339 
	C473.459686,749.597351 473.729248,749.797363 474.234558,750.625671 
	C484.790314,760.485840 495.346069,770.346008 506.230072,780.781128 
	C517.632812,787.564209 529.035522,794.347229 540.930786,801.703491 
	C549.640747,805.074463 558.350647,808.445496 567.654602,812.282410 
	C575.349487,814.211548 582.976929,816.499939 590.759583,817.961609 
	C597.556213,819.238037 603.372192,815.067078 604.730774,808.903503 
	C606.089539,802.739136 602.118530,795.942749 595.704285,794.186035 
	C588.357849,792.174072 580.901855,790.562073 572.865540,788.273499 
	C566.906555,786.102783 560.947571,783.932068 554.510986,781.287720 
	C546.063354,776.660034 537.615723,772.032410 528.747803,766.927979 
	C518.996399,758.759888 509.027802,750.833191 499.579376,742.328552 
	C494.347687,737.619385 489.986389,731.943359 485.221252,726.845154 
	C485.221252,726.845154 485.348267,726.780579 485.279663,726.164673 
	C484.876434,725.711304 484.473175,725.257996 483.995728,724.404236 
	C483.880280,724.133545 483.679810,723.962524 483.143921,723.347412 
	C482.818420,723.148743 482.492889,722.950073 482.192871,722.898926 
M830.094604,581.154785 
	C829.021179,575.437927 827.947754,569.721130 826.923035,563.212646 
	C826.254150,560.498657 825.817627,557.700745 824.872681,555.086548 
	C822.068665,547.328796 819.064270,539.643555 816.083862,531.144958 
	C811.741516,522.088562 807.399170,513.032166 802.939026,503.282715 
	C801.863953,501.440063 800.958740,499.469391 799.683533,497.777527 
	C794.881958,491.407593 789.959900,485.128418 784.982422,478.137604 
	C779.030701,471.672821 773.078979,465.208069 766.813110,458.162933 
	C756.001892,449.983826 745.190674,441.804749 734.278015,433.635529 
	C734.278015,433.635529 734.271240,433.737213 734.067688,433.205688 
	C733.715454,433.151154 733.363220,433.096588 732.397400,432.792694 
	C730.945557,431.864868 729.493713,430.937073 727.972961,429.466187 
	C727.644165,429.333893 727.315369,429.201630 726.615845,428.612457 
	C726.079468,428.404510 725.543152,428.196594 724.573730,427.461670 
	C721.377502,425.989685 718.181213,424.517700 714.485962,422.557617 
	C699.078613,415.175842 682.817993,410.544281 666.059021,407.507446 
	C658.851685,406.201477 652.525452,409.998260 651.114075,416.523712 
	C649.589355,423.573547 653.442810,429.847748 661.070312,431.211884 
	C678.066833,434.251617 694.084290,440.098724 710.157349,447.587189 
	C710.755188,447.782410 711.353088,447.977600 711.946655,448.080902 
	C711.946655,448.080902 711.860962,448.114349 712.250244,448.677612 
	C722.623779,455.512939 732.997253,462.348236 743.730042,469.794800 
	C750.022156,475.902832 756.314209,482.010895 762.815552,488.793854 
	C769.096130,497.245911 775.376709,505.697968 781.806335,514.855103 
	C786.136475,523.362488 790.466614,531.869812 794.873169,541.114441 
	C797.046875,547.444336 799.220642,553.774170 801.530457,560.938721 
	C803.410034,570.650757 805.289551,580.362854 807.138855,590.994629 
	C807.535522,595.546631 807.932190,600.098694 808.202087,605.557861 
	C808.227417,609.715942 808.252747,613.873962 808.056641,618.487183 
	C808.016968,618.651184 807.977295,618.815125 807.186401,619.079346 
	C804.789062,619.846924 802.391785,620.614563 799.331177,621.497437 
	C795.056946,624.466492 790.782715,627.435547 786.517517,630.442383 
	C786.517517,630.442383 786.496643,630.408630 785.863892,630.654358 
	C777.990173,638.077026 773.823303,647.326111 772.867920,657.976868 
	C771.433350,673.970642 777.997314,686.690918 789.946960,697.055542 
	C762.190857,749.205811 719.867004,781.414246 662.504272,793.856079 
	C653.986511,795.703491 649.542786,801.615234 651.027344,809.049011 
	C652.402405,815.934448 659.070984,819.661133 667.472351,817.832397 
	C731.674988,803.857422 779.456055,768.121521 810.097900,709.832336 
	C811.632751,706.912659 813.138550,705.515015 816.801331,705.433228 
	C838.577454,704.946838 855.977722,689.153137 858.836365,667.317444 
	C858.820740,666.891602 858.805115,666.465820 859.006836,665.243958 
	C858.650085,663.163330 858.293335,661.082703 858.088013,658.120972 
	C857.802246,655.228210 857.516479,652.335388 857.255066,648.734436 
	C855.861023,645.813538 854.466980,642.892578 852.984619,639.358643 
	C852.373230,638.555908 851.761841,637.753235 850.971802,636.278748 
	C849.436462,634.531189 847.901123,632.783630 846.102905,630.502747 
	C845.006165,629.502014 844.076233,628.050598 842.785828,627.572754 
	C833.463074,624.120728 830.792847,617.168396 832.267517,607.068909 
	C831.517639,598.708801 830.767700,590.348755 830.094604,581.154785 
M728.078125,589.348938 
	C717.661804,543.013306 675.986694,509.225494 629.202209,509.185944 
	C579.810120,509.144196 538.823059,541.950256 527.342712,590.370911 
	C513.769104,591.883911 504.883972,600.841919 505.211334,612.683777 
	C505.562988,625.403564 514.201416,633.793762 527.748718,635.255981 
	C535.438538,680.192505 574.720032,714.349426 622.559937,717.698364 
	C672.668091,721.206055 720.623474,683.681274 729.145935,634.720642 
	C730.614197,634.451538 732.101440,634.259216 733.547791,633.901367 
	C747.687439,630.403198 754.614258,615.682190 748.316895,602.658264 
	C744.242859,594.232300 736.928894,591.109497 728.078125,589.348938 
M867.901611,779.365906 
	C823.770874,844.483276 763.468994,885.951721 686.275452,901.496826 
	C610.674927,916.721191 540.343384,902.606079 475.855194,860.182556 
	C468.420319,855.291565 461.473297,849.659119 454.399078,844.443420 
	C455.501892,841.852417 456.307953,840.034241 457.054810,838.192078 
	C463.783295,821.595398 459.197083,801.677002 445.895508,789.680176 
	C429.888702,775.243469 405.965515,774.715454 389.062897,788.425842 
	C372.952362,801.493713 368.698944,825.613647 379.230103,844.184998 
	C389.626404,862.518616 412.197357,870.600403 432.430145,862.886047 
	C435.908234,861.559937 437.987396,862.038025 440.769196,864.264648 
	C502.926300,914.017395 573.735657,937.690125 653.213867,930.947754 
	C744.550171,923.199463 819.574341,883.135742 875.730957,810.321716 
	C956.801086,705.204346 964.368225,562.118103 896.029724,447.794281 
	C891.743469,440.623749 884.631409,438.264343 878.301392,441.912964 
	C871.973572,445.560272 870.539490,452.759094 874.706116,460.060455 
	C898.483948,501.727600 913.568054,546.199585 916.836426,594.228821 
	C921.388062,661.117126 904.888977,722.618774 867.901611,779.365906 
M638.183594,318.219635 
	C688.062927,320.019562 734.651672,332.613953 776.852173,359.829773 
	C772.591492,369.915192 771.566772,378.982788 773.462769,388.216736 
	C778.563354,413.057587 803.282227,427.869202 827.976257,420.881348 
	C852.104248,414.053680 865.535889,387.058136 856.525085,363.502808 
	C847.231689,339.208740 820.396301,328.057159 797.513733,339.261322 
	C794.156555,340.905121 792.032410,340.621216 789.063782,338.708160 
	C769.934143,326.380341 749.684082,316.167419 728.014587,309.213623 
	C636.913635,279.978943 549.816528,289.401245 468.079315,339.105865 
	C409.774841,374.560944 367.361938,424.942871 339.992493,487.278442 
	C307.409698,561.487671 304.026794,637.630737 329.947479,714.508240 
	C336.084808,732.710815 345.110352,749.964294 353.210541,767.467712 
	C356.240753,774.015625 364.322662,776.150269 370.331024,772.931458 
	C376.644836,769.548950 378.681030,762.612671 375.331818,755.825623 
	C374.595886,754.334351 373.775391,752.884949 373.012512,751.406616 
	C351.152039,709.047180 337.821777,664.395081 337.927338,616.404480 
	C338.070740,551.231201 357.165070,491.839203 395.955261,439.570587 
	C455.842041,358.874969 535.856750,316.991211 638.183594,318.219635 
M618.599182,853.597412 
	C621.894348,857.909973 626.212097,859.491394 631.361633,857.809143 
	C635.769836,856.369141 638.770081,853.422852 639.146851,848.479004 
	C639.531677,843.429932 637.085266,839.180237 632.649536,837.147888 
	C628.029175,835.031067 623.872986,835.978088 620.209778,839.263245 
	C616.384827,842.693665 615.795288,847.026917 618.599182,853.597412 
M622.600647,356.029846 
	C627.488647,358.622986 631.993469,357.849609 635.868103,354.117767 
	C639.286499,350.825348 640.157288,346.685242 638.573242,342.200195 
	C636.928528,337.543457 632.701050,334.708313 627.803345,334.867249 
	C622.801392,335.029572 619.307800,337.554901 617.430664,342.118164 
	C615.441345,346.954376 617.057190,351.523987 622.600647,356.029846 
M633.846069,889.707458 
	C639.557007,885.092773 640.801697,878.765747 637.020203,873.572510 
	C633.587463,868.858521 626.794250,867.658081 621.824829,870.887390 
	C616.821716,874.138672 615.306702,880.598877 618.315002,885.853149 
	C621.216675,890.921509 626.358093,892.384827 633.846069,889.707458 
M631.504456,368.613892 
	C624.505310,367.194061 618.821594,370.021393 617.180176,375.739349 
	C615.567200,381.358002 618.609619,387.397614 624.101868,389.480164 
	C629.579102,391.557007 635.890320,388.922546 638.216858,383.588257 
	C640.817322,377.625885 638.661865,372.302490 631.504456,368.613892 
z"/>
<path fill="#000027" opacity="1.000000" stroke="none" 
	d="
M832.531372,180.937653 
	C831.090210,181.350250 829.189209,181.948792 827.288025,181.949432 
	C698.206116,181.993484 569.124207,181.991043 440.042328,181.973770 
	C438.230011,181.973526 436.417664,181.735321 434.307007,181.318130 
	C449.817230,180.934418 465.625793,180.758972 481.434357,180.760101 
	C598.313416,180.768494 715.192444,180.812042 832.531372,180.937653 
z"/>
<path fill="#F9F9FB" opacity="1.000000" stroke="none" 
	d="
M868.088745,779.058228 
	C904.888977,722.618774 921.388062,661.117126 916.836426,594.228821 
	C913.568054,546.199585 898.483948,501.727600 874.706116,460.060455 
	C870.539490,452.759094 871.973572,445.560272 878.301392,441.912964 
	C884.631409,438.264343 891.743469,440.623749 896.029724,447.794281 
	C964.368225,562.118103 956.801086,705.204346 875.730957,810.321716 
	C819.574341,883.135742 744.550171,923.199463 653.213867,930.947754 
	C573.735657,937.690125 502.926300,914.017395 440.769196,864.264648 
	C437.987396,862.038025 435.908234,861.559937 432.430145,862.886047 
	C412.197357,870.600403 389.626404,862.518616 379.230103,844.184998 
	C368.698944,825.613647 372.952362,801.493713 389.062897,788.425842 
	C405.965515,774.715454 429.888702,775.243469 445.895508,789.680176 
	C459.197083,801.677002 463.783295,821.595398 457.054810,838.192078 
	C456.307953,840.034241 455.501892,841.852417 454.399078,844.443420 
	C461.473297,849.659119 468.420319,855.291565 475.855194,860.182556 
	C540.343384,902.606079 610.674927,916.721191 686.275452,901.496826 
	C763.468994,885.951721 823.770874,844.483276 868.088745,779.058228 
M404.875183,807.259277 
	C403.322601,809.189575 401.458160,810.946350 400.271088,813.080017 
	C394.939514,822.662842 398.886963,834.739624 408.669464,839.287048 
	C418.659302,843.930847 430.175232,839.478638 434.382812,829.345947 
	C437.408997,822.058228 435.348541,813.176025 429.421967,807.960449 
	C422.703186,802.047852 414.390198,801.653137 404.875183,807.259277 
z"/>
<path fill="#F9F9FA" opacity="1.000000" stroke="none" 
	d="
M637.710327,318.194611 
	C535.856750,316.991211 455.842041,358.874969 395.955261,439.570587 
	C357.165070,491.839203 338.070740,551.231201 337.927338,616.404480 
	C337.821777,664.395081 351.152039,709.047180 373.012512,751.406616 
	C373.775391,752.884949 374.595886,754.334351 375.331818,755.825623 
	C378.681030,762.612671 376.644836,769.548950 370.331024,772.931458 
	C364.322662,776.150269 356.240753,774.015625 353.210541,767.467712 
	C345.110352,749.964294 336.084808,732.710815 329.947479,714.508240 
	C304.026794,637.630737 307.409698,561.487671 339.992493,487.278442 
	C367.361938,424.942871 409.774841,374.560944 468.079315,339.105865 
	C549.816528,289.401245 636.913635,279.978943 728.014587,309.213623 
	C749.684082,316.167419 769.934143,326.380341 789.063782,338.708160 
	C792.032410,340.621216 794.156555,340.905121 797.513733,339.261322 
	C820.396301,328.057159 847.231689,339.208740 856.525085,363.502808 
	C865.535889,387.058136 852.104248,414.053680 827.976257,420.881348 
	C803.282227,427.869202 778.563354,413.057587 773.462769,388.216736 
	C771.566772,378.982788 772.591492,369.915192 776.852173,359.829773 
	C734.651672,332.613953 688.062927,320.019562 637.710327,318.194611 
M833.015503,387.225952 
	C833.380066,386.300964 833.817749,385.397522 834.097778,384.447601 
	C836.476562,376.379120 833.622681,368.128052 826.811462,363.294556 
	C820.059326,358.502991 811.625183,358.529358 804.911987,363.363068 
	C798.458313,368.009949 795.419739,377.004028 798.008179,384.694855 
	C800.503296,392.108398 805.790283,396.727417 813.523804,397.774902 
	C821.997253,398.922668 828.302307,395.097504 833.015503,387.225952 
z"/>
<path fill="#6442FA" opacity="1.000000" stroke="none" 
	d="
M483.394348,723.891052 
	C483.679810,723.962524 483.880280,724.133545 484.036835,724.941956 
	C484.501373,725.913330 484.924805,726.346985 485.348267,726.780579 
	C485.348267,726.780579 485.221252,726.845154 485.254211,727.124634 
	C484.797150,728.326660 484.545990,729.692078 483.781006,730.104614 
	C473.689911,735.546448 473.576355,735.537537 476.466217,746.734070 
	C477.149963,749.383301 476.374878,750.080627 473.998779,749.997375 
	C473.729248,749.797363 473.459686,749.597351 473.071045,748.851685 
	C472.552185,747.910461 472.152435,747.514893 471.752686,747.119385 
	C471.752686,747.119385 471.880310,747.072449 471.791962,746.860596 
	C471.373657,746.459595 471.043732,746.270386 470.713776,746.081238 
	C456.253265,729.213928 445.650726,710.077393 437.748077,689.418823 
	C424.796539,655.561829 421.355927,620.603455 426.325928,584.788818 
	C426.736206,581.832336 426.028351,580.396301 423.694092,578.684509 
	C407.618347,566.895264 401.364838,545.269714 408.490845,526.872681 
	C415.679138,508.314941 433.773743,497.483978 454.245789,499.221313 
	C455.666412,499.341919 457.817139,498.005493 458.663605,496.714203 
	C490.012726,448.890015 533.422119,418.891449 589.665344,407.785339 
	C597.243958,406.288818 603.422546,410.139984 604.823242,417.033813 
	C606.303406,424.318359 602.163391,430.313904 594.204407,431.787445 
	C574.853516,435.370026 556.642639,442.012878 539.575073,451.768616 
	C514.792236,465.934448 494.782593,485.113190 479.553040,509.264191 
	C479.299866,509.665710 479.202057,510.165192 478.942871,510.855743 
	C487.583984,519.996704 492.441162,530.671082 492.340790,543.606018 
	C492.176666,564.750366 476.195679,583.365417 455.164581,585.898804 
	C451.439941,586.347473 450.269897,587.538574 449.829865,591.257751 
	C444.292633,638.057251 454.944580,680.882080 481.026001,720.700378 
	C481.501160,721.860168 481.911652,722.341797 482.322144,722.823364 
	C482.322144,722.823364 482.192871,722.898926 482.265930,723.120911 
	C482.690765,723.525635 483.042542,723.708313 483.394348,723.891052 
M443.639404,561.237610 
	C445.272003,561.498596 446.899323,561.943054 448.538055,561.989746 
	C456.904358,562.228699 464.933807,556.490112 467.094086,548.839539 
	C469.599304,539.967346 466.415649,531.146423 459.086121,526.652344 
	C451.751831,522.155334 442.143127,523.061157 436.016785,528.827148 
	C425.583588,538.646545 428.927277,554.324524 443.639404,561.237610 
z"/>
<path fill="#FCFCFC" opacity="1.000000" stroke="none" 
	d="
M728.440674,634.847473 
	C720.623474,683.681274 672.668091,721.206055 622.559937,717.698364 
	C574.720032,714.349426 535.438538,680.192505 528.142090,634.792847 
	C538.202332,634.185059 543.712769,627.941528 549.053833,620.702148 
	C559.670593,620.708191 569.774109,620.708191 579.746460,620.708191 
	C585.223328,648.031616 606.627197,661.950806 627.169373,662.392456 
	C650.435364,662.892578 667.362244,648.823914 676.644836,620.570129 
	C686.750427,620.570129 697.049316,620.570129 707.591614,620.811401 
	C712.203613,629.385254 719.345337,633.575439 728.440674,634.847473 
z"/>
<path fill="#FCFCFC" opacity="1.000000" stroke="none" 
	d="
M528.079529,590.124573 
	C538.823059,541.950256 579.810120,509.144196 629.202209,509.185944 
	C675.986694,509.225494 717.661804,543.013306 727.816711,589.944458 
	C717.608582,591.296997 711.279114,596.959229 706.688232,605.554077 
	C699.409729,605.445068 692.584839,605.346558 685.759644,605.313782 
	C676.672791,605.270081 676.679382,605.289673 673.721985,596.927246 
	C673.334717,595.832336 672.860901,594.765808 672.386353,593.704407 
	C663.843201,574.597717 644.741760,563.313721 623.662170,564.913452 
	C603.981873,566.407043 586.183594,581.331665 581.116028,600.990356 
	C580.235229,604.407166 578.977234,605.488831 575.474976,605.400024 
	C566.492920,605.172119 557.499390,605.397461 548.316956,605.109253 
	C544.276001,596.016235 537.256104,591.595276 528.079529,590.124573 
z"/>
<path fill="#14BFFB" opacity="1.000000" stroke="none" 
	d="
M857.936584,659.002075 
	C858.293335,661.082703 858.650085,663.163330 858.712891,665.780640 
	C858.488159,666.853638 858.557434,667.390015 858.626709,667.926331 
	C855.977722,689.153137 838.577454,704.946838 816.801331,705.433228 
	C813.138550,705.515015 811.632751,706.912659 810.097900,709.832336 
	C779.456055,768.121521 731.674988,803.857422 667.472351,817.832397 
	C659.070984,819.661133 652.402405,815.934448 651.027344,809.049011 
	C649.542786,801.615234 653.986511,795.703491 662.504272,793.856079 
	C719.867004,781.414246 762.190857,749.205811 789.946960,697.055542 
	C777.997314,686.690918 771.433350,673.970642 772.867920,657.976868 
	C773.823303,647.326111 777.990173,638.077026 786.226562,630.898987 
	C784.290283,635.089844 781.991272,639.036072 779.692261,642.982300 
	C780.166992,643.323425 780.641785,643.664551 781.116577,644.005676 
	C782.927795,642.315735 784.739075,640.625732 787.367249,638.173523 
	C790.250000,643.723145 792.839783,648.708801 795.369934,653.579712 
	C797.083801,652.691589 798.604004,651.903870 800.031311,651.473267 
	C799.432922,652.879456 798.845520,653.897461 798.434570,654.982361 
	C794.633606,665.015869 799.930847,676.520996 809.840698,679.812439 
	C820.046875,683.202393 830.842712,677.596802 834.130981,667.277893 
	C836.742737,659.082153 833.436035,652.737183 828.215698,646.751221 
	C831.860352,647.313232 835.260437,648.297241 838.727051,648.896973 
	C841.586487,649.391663 843.033936,648.535583 844.297241,645.147766 
	C846.061340,640.417175 846.568481,635.870361 846.365845,631.036072 
	C847.901123,632.783630 849.436462,634.531189 850.726868,636.667480 
	C850.188049,637.642883 849.894165,638.229614 849.600342,638.816345 
	C850.757874,639.201416 851.915405,639.586548 853.072937,639.971680 
	C854.466980,642.892578 855.861023,645.813538 857.096008,649.376221 
	C852.035400,650.958313 848.875610,655.386780 849.059387,661.361938 
	C849.094849,662.515564 849.854126,663.647034 850.279541,664.788696 
	C851.578979,664.272461 853.085327,664.014099 854.127747,663.177612 
	C855.579346,662.012512 856.683716,660.414734 857.936584,659.002075 
z"/>
<path fill="#5F49FA" opacity="1.000000" stroke="none" 
	d="
M709.760010,447.087128 
	C694.084290,440.098724 678.066833,434.251617 661.070312,431.211884 
	C653.442810,429.847748 649.589355,423.573547 651.114075,416.523712 
	C652.525452,409.998260 658.851685,406.201477 666.059021,407.507446 
	C682.817993,410.544281 699.078613,415.175842 714.740723,423.191711 
	C716.039978,429.110199 721.170471,431.243530 725.006775,427.988678 
	C725.543152,428.196594 726.079468,428.404510 726.924438,429.050598 
	C727.448669,429.746155 727.718262,429.919647 728.041870,430.009247 
	C729.493713,430.937073 730.945557,431.864868 732.846802,433.135498 
	C733.621216,433.564606 733.946228,433.650909 734.271240,433.737213 
	C734.271240,433.737213 734.278015,433.635529 734.197876,434.055023 
	C733.140564,435.314148 732.213867,436.801392 731.177490,436.882202 
	C726.468628,437.249603 722.878357,439.220642 719.640137,442.673615 
	C717.521851,444.932434 714.485901,446.330688 711.860962,448.114349 
	C711.860962,448.114349 711.946655,448.080902 711.789917,447.832184 
	C711.008850,447.417999 710.384399,447.252563 709.760010,447.087128 
z"/>
<path fill="#18B8FC" opacity="1.000000" stroke="none" 
	d="
M800.124146,651.116089 
	C798.604004,651.903870 797.083801,652.691589 795.369934,653.579712 
	C792.839783,648.708801 790.250000,643.723145 787.367249,638.173523 
	C784.739075,640.625732 782.927795,642.315735 781.116577,644.005676 
	C780.641785,643.664551 780.166992,643.323425 779.692261,642.982300 
	C781.991272,639.036072 784.290283,635.089844 786.542969,630.776123 
	C786.496643,630.408630 786.517517,630.442383 786.880737,630.525879 
	C788.994934,629.738342 790.928162,629.106628 792.456543,627.943176 
	C795.101440,625.929871 797.495300,623.586853 799.994446,621.382141 
	C802.391785,620.614563 804.789062,619.846924 807.736084,618.980835 
	C808.374695,618.803467 808.550964,618.702209 808.537415,618.649536 
	C808.482666,618.435608 808.369568,618.236572 808.278076,618.032043 
	C808.252747,613.873962 808.227417,609.715942 808.656128,605.363770 
	C809.658508,608.407410 810.206726,611.645081 810.747986,614.841370 
	C813.436157,613.386353 815.655579,611.170288 817.835022,611.208801 
	C822.963013,611.299683 827.814697,611.251465 832.085632,607.987793 
	C830.792847,617.168396 833.463074,624.120728 842.785828,627.572754 
	C844.076233,628.050598 845.006165,629.502014 846.234375,630.769409 
	C846.568481,635.870361 846.061340,640.417175 844.297241,645.147766 
	C843.033936,648.535583 841.586487,649.391663 838.727051,648.896973 
	C835.260437,648.297241 831.860352,647.313232 827.875854,646.638062 
	C820.893005,642.322876 814.098877,641.898376 806.871948,644.777222 
	C806.565430,644.846069 806.377075,645.068665 806.155640,645.249268 
	C806.122559,645.207275 806.229248,645.200928 805.852600,645.165649 
	C802.408142,645.985718 799.713562,647.176575 800.088501,651.101196 
	C800.089294,651.076904 800.124146,651.116089 800.124146,651.116089 
z"/>
<path fill="#14C1FA" opacity="1.000000" stroke="none" 
	d="
M707.141663,605.593872 
	C711.279114,596.959229 717.608582,591.296997 727.892639,590.354614 
	C736.928894,591.109497 744.242859,594.232300 748.316895,602.658264 
	C754.614258,615.682190 747.687439,630.403198 733.547791,633.901367 
	C732.101440,634.259216 730.614197,634.451538 728.793335,634.784058 
	C719.345337,633.575439 712.203613,629.385254 707.577637,620.409912 
	C707.260681,615.042725 707.201172,610.318298 707.141663,605.593872 
z"/>
<path fill="#14C1FA" opacity="1.000000" stroke="none" 
	d="
M527.711121,590.247742 
	C537.256104,591.595276 544.276001,596.016235 548.323425,605.489319 
	C548.529114,611.033203 548.534851,615.864685 548.540527,620.696167 
	C543.712769,627.941528 538.202332,634.185059 528.090820,634.401855 
	C514.201416,633.793762 505.562988,625.403564 505.211334,612.683777 
	C504.883972,600.841919 513.769104,591.883911 527.711121,590.247742 
z"/>
<path fill="#5B4BFA" opacity="1.000000" stroke="none" 
	d="
M474.116669,750.311523 
	C476.374878,750.080627 477.149963,749.383301 476.466217,746.734070 
	C473.576355,735.537537 473.689911,735.546448 483.781006,730.104614 
	C484.545990,729.692078 484.797150,728.326660 485.259949,727.053650 
	C489.986389,731.943359 494.347687,737.619385 499.579376,742.328552 
	C509.027802,750.833191 518.996399,758.759888 528.913086,767.579834 
	C524.763367,771.796753 520.527954,775.466919 516.069519,778.842590 
	C515.119934,779.561523 513.354980,779.179626 511.972290,779.356323 
	C509.945679,779.615295 507.924988,779.920593 505.901794,780.206177 
	C495.346069,770.346008 484.790314,760.485840 474.116669,750.311523 
z"/>
<path fill="#5953FB" opacity="1.000000" stroke="none" 
	d="
M712.055603,448.395996 
	C714.485901,446.330688 717.521851,444.932434 719.640137,442.673615 
	C722.878357,439.220642 726.468628,437.249603 731.177490,436.882202 
	C732.213867,436.801392 733.140564,435.314148 734.248596,434.050079 
	C745.190674,441.804749 756.001892,449.983826 766.805664,458.789917 
	C765.231323,459.625122 763.664185,459.998291 762.097839,459.995056 
	C760.537476,459.991852 758.520386,458.887421 757.503601,459.530609 
	C754.388306,461.501038 751.739685,464.192017 748.743408,466.374603 
	C747.127747,467.551514 745.172668,468.262421 743.370728,469.183533 
	C732.997253,462.348236 722.623779,455.512939 712.055603,448.395996 
z"/>
<path fill="#515AFA" opacity="1.000000" stroke="none" 
	d="
M506.065918,780.493652 
	C507.924988,779.920593 509.945679,779.615295 511.972290,779.356323 
	C513.354980,779.179626 515.119934,779.561523 516.069519,778.842590 
	C520.527954,775.466919 524.763367,771.796753 529.123291,767.818237 
	C537.615723,772.032410 546.063354,776.660034 554.749512,781.916382 
	C552.704590,786.679749 549.930908,790.629700 548.282349,795.003723 
	C546.781677,798.985291 544.632751,801.097900 540.438232,801.130310 
	C529.035522,794.347229 517.632812,787.564209 506.065918,780.493652 
z"/>
<path fill="#4376FA" opacity="1.000000" stroke="none" 
	d="
M573.493469,788.776245 
	C580.901855,790.562073 588.357849,792.174072 595.704285,794.186035 
	C602.118530,795.942749 606.089539,802.739136 604.730774,808.903503 
	C603.372192,815.067078 597.556213,819.238037 590.759583,817.961609 
	C582.976929,816.499939 575.349487,814.211548 567.604187,811.808350 
	C571.159912,810.555115 571.996887,808.169739 572.093567,804.718201 
	C572.242554,799.395325 572.996277,794.089355 573.493469,788.776245 
z"/>
<path fill="#496EFA" opacity="1.000000" stroke="none" 
	d="
M785.082947,478.815247 
	C789.959900,485.128418 794.881958,491.407593 799.683533,497.777527 
	C800.958740,499.469391 801.863953,501.440063 802.741455,503.825073 
	C803.602966,508.537292 800.655334,509.157410 797.724365,509.905304 
	C792.357056,511.274811 787.011780,512.730347 781.657288,514.150024 
	C775.376709,505.697968 769.096130,497.245911 763.140686,488.422546 
	C767.203857,488.749420 770.786743,488.860474 774.158386,486.494934 
	C775.590515,485.490143 777.408264,484.850677 779.142700,484.500397 
	C782.418884,483.838776 784.309204,481.971069 785.082947,478.815247 
z"/>
<path fill="#505FFB" opacity="1.000000" stroke="none" 
	d="
M785.032715,478.476440 
	C784.309204,481.971069 782.418884,483.838776 779.142700,484.500397 
	C777.408264,484.850677 775.590515,485.490143 774.158386,486.494934 
	C770.786743,488.860474 767.203857,488.749420 763.036072,488.085083 
	C756.314209,482.010895 750.022156,475.902832 743.550415,469.489197 
	C745.172668,468.262421 747.127747,467.551514 748.743408,466.374603 
	C751.739685,464.192017 754.388306,461.501038 757.503601,459.530609 
	C758.520386,458.887421 760.537476,459.991852 762.097839,459.995056 
	C763.664185,459.998291 765.231323,459.625122 766.962708,459.080109 
	C773.078979,465.208069 779.030701,471.672821 785.032715,478.476440 
z"/>
<path fill="#378FFB" opacity="1.000000" stroke="none" 
	d="
M801.394409,560.104065 
	C799.220642,553.774170 797.046875,547.444336 795.022827,540.478882 
	C800.133057,538.279846 805.134583,536.831787 810.035461,535.099426 
	C812.175781,534.342896 814.110291,533.004272 816.138245,531.929932 
	C819.064270,539.643555 822.068665,547.328796 824.872681,555.086548 
	C825.817627,557.700745 826.254150,560.498657 826.484497,563.619385 
	C825.400818,564.162354 824.756653,564.412109 824.110352,564.417603 
	C816.255615,564.484375 807.715149,568.110840 801.394409,560.104065 
z"/>
<path fill="#407EFB" opacity="1.000000" stroke="none" 
	d="
M816.111084,531.537476 
	C814.110291,533.004272 812.175781,534.342896 810.035461,535.099426 
	C805.134583,536.831787 800.133057,538.279846 794.984619,540.110229 
	C790.466614,531.869812 786.136475,523.362488 781.731812,514.502563 
	C787.011780,512.730347 792.357056,511.274811 797.724365,509.905304 
	C800.655334,509.157410 803.602966,508.537292 802.800354,504.171570 
	C807.399170,513.032166 811.741516,522.088562 816.111084,531.537476 
z"/>
<path fill="#496EFA" opacity="1.000000" stroke="none" 
	d="
M573.179504,788.524902 
	C572.996277,794.089355 572.242554,799.395325 572.093567,804.718201 
	C571.996887,808.169739 571.159912,810.555115 567.307190,811.575317 
	C558.350647,808.445496 549.640747,805.074463 540.684509,801.416870 
	C544.632751,801.097900 546.781677,798.985291 548.282349,795.003723 
	C549.930908,790.629700 552.704590,786.679749 554.988342,782.153198 
	C560.947571,783.932068 566.906555,786.102783 573.179504,788.524902 
z"/>
<path fill="#23A9FA" opacity="1.000000" stroke="none" 
	d="
M832.176575,607.528320 
	C827.814697,611.251465 822.963013,611.299683 817.835022,611.208801 
	C815.655579,611.170288 813.436157,613.386353 810.747986,614.841370 
	C810.206726,611.645081 809.658508,608.407410 808.719482,604.910156 
	C807.932190,600.098694 807.535522,595.546631 807.625977,590.528076 
	C815.485413,587.562317 823.904480,587.903625 830.017822,581.988647 
	C830.767700,590.348755 831.517639,598.708801 832.176575,607.528320 
z"/>
<path fill="#2E9CFB" opacity="1.000000" stroke="none" 
	d="
M830.056274,581.571716 
	C823.904480,587.903625 815.485413,587.562317 807.641113,590.068176 
	C805.289551,580.362854 803.410034,570.650757 801.462402,560.521362 
	C807.715149,568.110840 816.255615,564.484375 824.110352,564.417603 
	C824.756653,564.412109 825.400818,564.162354 826.460144,564.015137 
	C827.947754,569.721130 829.021179,575.437927 830.056274,581.571716 
z"/>
<path fill="#0EC1F9" opacity="1.000000" stroke="none" 
	d="
M618.376343,853.274658 
	C615.795288,847.026917 616.384827,842.693665 620.209778,839.263245 
	C623.872986,835.978088 628.029175,835.031067 632.649536,837.147888 
	C637.085266,839.180237 639.531677,843.429932 639.146851,848.479004 
	C638.770081,853.422852 635.769836,856.369141 631.361633,857.809143 
	C626.212097,859.491394 621.894348,857.909973 618.376343,853.274658 
z"/>
<path fill="#0EC1F9" opacity="1.000000" stroke="none" 
	d="
M622.273804,355.844513 
	C617.057190,351.523987 615.441345,346.954376 617.430664,342.118164 
	C619.307800,337.554901 622.801392,335.029572 627.803345,334.867249 
	C632.701050,334.708313 636.928528,337.543457 638.573242,342.200195 
	C640.157288,346.685242 639.286499,350.825348 635.868103,354.117767 
	C631.993469,357.849609 627.488647,358.622986 622.273804,355.844513 
z"/>
<path fill="#0EC1F9" opacity="1.000000" stroke="none" 
	d="
M633.486938,889.888306 
	C626.358093,892.384827 621.216675,890.921509 618.315002,885.853149 
	C615.306702,880.598877 616.821716,874.138672 621.824829,870.887390 
	C626.794250,867.658081 633.587463,868.858521 637.020203,873.572510 
	C640.801697,878.765747 639.557007,885.092773 633.486938,889.888306 
z"/>
<path fill="#0EC1F9" opacity="1.000000" stroke="none" 
	d="
M631.879944,368.739624 
	C638.661865,372.302490 640.817322,377.625885 638.216858,383.588257 
	C635.890320,388.922546 629.579102,391.557007 624.101868,389.480164 
	C618.609619,387.397614 615.567200,381.358002 617.180176,375.739349 
	C618.821594,370.021393 624.505310,367.194061 631.879944,368.739624 
z"/>
<path fill="#18B8FC" opacity="1.000000" stroke="none" 
	d="
M858.012329,658.561523 
	C856.683716,660.414734 855.579346,662.012512 854.127747,663.177612 
	C853.085327,664.014099 851.578979,664.272461 850.279541,664.788696 
	C849.854126,663.647034 849.094849,662.515564 849.059387,661.361938 
	C848.875610,655.386780 852.035400,650.958313 857.083801,649.730347 
	C857.516479,652.335388 857.802246,655.228210 858.012329,658.561523 
z"/>
<path fill="#5B4BFA" opacity="1.000000" stroke="none" 
	d="
M724.790283,427.725159 
	C721.170471,431.243530 716.039978,429.110199 714.990234,423.435791 
	C718.181213,424.517700 721.377502,425.989685 724.790283,427.725159 
z"/>
<path fill="#14BFFB" opacity="1.000000" stroke="none" 
	d="
M799.662842,621.439819 
	C797.495300,623.586853 795.101440,625.929871 792.456543,627.943176 
	C790.928162,629.106628 788.994934,629.738342 786.876221,630.507019 
	C790.782715,627.435547 795.056946,624.466492 799.662842,621.439819 
z"/>
<path fill="#18B8FC" opacity="1.000000" stroke="none" 
	d="
M853.028809,639.665161 
	C851.915405,639.586548 850.757874,639.201416 849.600342,638.816345 
	C849.894165,638.229614 850.188049,637.642883 850.816162,637.003357 
	C851.761841,637.753235 852.373230,638.555908 853.028809,639.665161 
z"/>
<path fill="#5953FB" opacity="1.000000" stroke="none" 
	d="
M709.958679,447.337158 
	C710.384399,447.252563 711.008850,447.417999 711.792114,447.878113 
	C711.353088,447.977600 710.755188,447.782410 709.958679,447.337158 
z"/>
<path fill="#5B4BFA" opacity="1.000000" stroke="none" 
	d="
M471.800598,747.407349 
	C472.152435,747.514893 472.552185,747.910461 472.992188,748.606140 
	C472.637787,748.502625 472.243164,748.098999 471.800598,747.407349 
z"/>
<path fill="#5B4BFA" opacity="1.000000" stroke="none" 
	d="
M485.313965,726.472656 
	C484.924805,726.346985 484.501373,725.913330 484.073944,725.142151 
	C484.473175,725.257996 484.876434,725.711304 485.313965,726.472656 
z"/>
<path fill="#5B4BFA" opacity="1.000000" stroke="none" 
	d="
M482.297729,722.501831 
	C481.911652,722.341797 481.501160,721.860168 481.102905,721.026978 
	C481.501251,721.177063 481.887299,721.678650 482.297729,722.501831 
z"/>
<path fill="#18B8FC" opacity="1.000000" stroke="none" 
	d="
M858.731567,667.621887 
	C858.557434,667.390015 858.488159,666.853638 858.604248,666.178650 
	C858.805115,666.465820 858.820740,666.891602 858.731567,667.621887 
z"/>
<path fill="#5B4BFA" opacity="1.000000" stroke="none" 
	d="
M470.827881,746.347046 
	C471.043732,746.270386 471.373657,746.459595 471.796448,746.928406 
	C471.573517,747.009705 471.257721,746.811340 470.827881,746.347046 
z"/>
<path fill="#5B4BFA" opacity="1.000000" stroke="none" 
	d="
M483.269135,723.619263 
	C483.042542,723.708313 482.690765,723.525635 482.253174,723.047119 
	C482.492889,722.950073 482.818420,723.148743 483.269135,723.619263 
z"/>
<path fill="#23A9FA" opacity="1.000000" stroke="none" 
	d="
M808.167358,618.259644 
	C808.369568,618.236572 808.482666,618.435608 808.537415,618.649536 
	C808.550964,618.702209 808.374695,618.803467 808.111694,618.930786 
	C807.977295,618.815125 808.016968,618.651184 808.167358,618.259644 
z"/>
<path fill="#5B4BFA" opacity="1.000000" stroke="none" 
	d="
M728.007446,429.737732 
	C727.718262,429.919647 727.448669,429.746155 727.109863,429.279053 
	C727.315369,429.201630 727.644165,429.333893 728.007446,429.737732 
z"/>
<path fill="#5953FB" opacity="1.000000" stroke="none" 
	d="
M734.169434,433.471436 
	C733.946228,433.650909 733.621216,433.564606 733.153564,433.260193 
	C733.363220,433.096588 733.715454,433.151154 734.169434,433.471436 
z"/>
<path fill="#090F3C" opacity="1.000000" stroke="none" 
	d="
M405.174561,807.041382 
	C414.390198,801.653137 422.703186,802.047852 429.421967,807.960449 
	C435.348541,813.176025 437.408997,822.058228 434.382812,829.345947 
	C430.175232,839.478638 418.659302,843.930847 408.669464,839.287048 
	C398.886963,834.739624 394.939514,822.662842 400.271088,813.080017 
	C401.458160,810.946350 403.322601,809.189575 405.174561,807.041382 
z"/>
<path fill="#090F3C" opacity="1.000000" stroke="none" 
	d="
M832.854370,387.572937 
	C828.302307,395.097504 821.997253,398.922668 813.523804,397.774902 
	C805.790283,396.727417 800.503296,392.108398 798.008179,384.694855 
	C795.419739,377.004028 798.458313,368.009949 804.911987,363.363068 
	C811.625183,358.529358 820.059326,358.502991 826.811462,363.294556 
	C833.622681,368.128052 836.476562,376.379120 834.097778,384.447601 
	C833.817749,385.397522 833.380066,386.300964 832.854370,387.572937 
z"/>
<path fill="#080D3F" opacity="1.000000" stroke="none" 
	d="
M443.258606,561.117493 
	C428.927277,554.324524 425.583588,538.646545 436.016785,528.827148 
	C442.143127,523.061157 451.751831,522.155334 459.086121,526.652344 
	C466.415649,531.146423 469.599304,539.967346 467.094086,548.839539 
	C464.933807,556.490112 456.904358,562.228699 448.538055,561.989746 
	C446.899323,561.943054 445.272003,561.498596 443.258606,561.117493 
z"/>
<path fill="#090F3C" opacity="1.000000" stroke="none" 
	d="
M549.053833,620.702148 
	C548.534851,615.864685 548.529114,611.033203 548.516907,605.821655 
	C557.499390,605.397461 566.492920,605.172119 575.474976,605.400024 
	C578.977234,605.488831 580.235229,604.407166 581.116028,600.990356 
	C586.183594,581.331665 603.981873,566.407043 623.662170,564.913452 
	C644.741760,563.313721 663.843201,574.597717 672.386353,593.704407 
	C672.860901,594.765808 673.334717,595.832336 673.721985,596.927246 
	C676.679382,605.289673 676.672791,605.270081 685.759644,605.313782 
	C692.584839,605.346558 699.409729,605.445068 706.688232,605.554077 
	C707.201172,610.318298 707.260681,615.042725 707.334229,620.168640 
	C697.049316,620.570129 686.750427,620.570129 676.644836,620.570129 
	C667.362244,648.823914 650.435364,662.892578 627.169373,662.392456 
	C606.627197,661.950806 585.223328,648.031616 579.746460,620.708191 
	C569.774109,620.708191 559.670593,620.708191 549.053833,620.702148 
z"/>
<path fill="#090F3C" opacity="1.000000" stroke="none" 
	d="
M806.990234,644.930908 
	C814.098877,641.898376 820.893005,642.322876 827.660034,646.893677 
	C833.436035,652.737183 836.742737,659.082153 834.130981,667.277893 
	C830.842712,677.596802 820.046875,683.202393 809.840698,679.812439 
	C799.930847,676.520996 794.633606,665.015869 798.434570,654.982361 
	C798.845520,653.897461 799.432922,652.879456 800.031311,651.473267 
	C800.124146,651.116089 800.089294,651.076904 800.369812,650.928711 
	C802.509949,648.920654 804.369629,647.060791 806.229248,645.200928 
	C806.229248,645.200928 806.122559,645.207275 806.381409,645.216187 
	C806.640259,645.225159 806.990234,644.930908 806.990234,644.930908 
z"/>
<path fill="#14BFFB" opacity="1.000000" stroke="none" 
	d="
M805.852661,645.165649 
	C804.369629,647.060791 802.509949,648.920654 800.369019,650.953003 
	C799.713562,647.176575 802.408142,645.985718 805.852661,645.165649 
z"/>
<path fill="#14BFFB" opacity="1.000000" stroke="none" 
	d="
M806.871948,644.777222 
	C806.990234,644.930908 806.640259,645.225159 806.414490,645.258179 
	C806.377075,645.068665 806.565430,644.846069 806.871948,644.777222 
z"/>
</svg>